<svg xmlns:dc="http://purl.org/dc/elements/1.1/" xmlns:cc="http://web.resource.org/cc/" xmlns:rdf="http://www.w3.org/1999/02/22-rdf-syntax-ns#" xmlns:svg="http://www.w3.org/2000/svg" xmlns="http://www.w3.org/2000/svg" xmlns:sodipodi="http://inkscape.sourceforge.net/DTD/sodipodi-0.dtd" xmlns:inkscape="http://www.inkscape.org/namespaces/inkscape" id="svg2" sodipodi:version="0.32" inkscape:version="0.43" width="120mm" height="168mm" sodipodi:docbase="C:\Dokumente und Einstellungen\Arne Rosenfeldt\Eigene Dateien\Literatur\blah\eigene\01 Nebenfach 2 wiki\mechanics\suspension" sodipodi:docname="Automotive_suspension_comparison.svg" version="1.0">
  <metadata id="metadata7">
    <rdf:RDF>
      <cc:Work rdf:about="">
        <dc:format>image/svg+xml</dc:format>
        <dc:type rdf:resource="http://purl.org/dc/dcmitype/StillImage"/>
      </cc:Work>
    </rdf:RDF>
  </metadata>
  <defs id="defs5"/>
  <sodipodi:namedview inkscape:window-height="800" inkscape:window-width="1440" inkscape:pageshadow="2" inkscape:pageopacity="0.0" borderopacity="1.0" bordercolor="#666666" pagecolor="#ffffff" id="base" inkscape:zoom="0.48274307" inkscape:cx="-250.7172" inkscape:cy="690.41801" inkscape:window-x="-4" inkscape:window-y="-4" inkscape:current-layer="svg2" inkscape:document-units="mm" showgrid="true" inkscape:grid-bbox="false" inkscape:grid-points="true" gridspacingy="1mm" gridspacingx="1mm" gridoriginy="0mm" gridoriginx="0mm" gridtolerance="0.3mm" inkscape:guide-bbox="false" showguides="false"/>
  <rect style="fill:rgba(0,0,0,0);stroke:none;stroke-width:13.93204975;stroke-miterlimit:4;stroke-dasharray:none;stroke-opacity:1" id="rect3055" width="432.43167" height="1481.1191" x="42.222885" y="28.346447" rx="8.8437891" ry="8.8437891"/>
  <rect style="fill:rgba(0,0,0,0);stroke:none;stroke-width:13.93204975;stroke-miterlimit:4;stroke-dasharray:none;stroke-opacity:1" id="rect3931" width="432.43167" height="1481.1191" x="49.457703" y="7.0866027" rx="8.8437891" ry="8.8437891"/>
  <g id="g2943" transform="translate(800,-1380)">
    <g transform="translate(-813.6263,1399.606)" id="g2723">
      <rect rx="10.597214" ry="10.597214" y="138.18895" x="27.01215" height="24.803154" width="68.657143" id="rect2725" style="fill:#000000;fill-opacity:1;stroke:none;stroke-width:2.81793427;stroke-miterlimit:4;stroke-dasharray:none;stroke-opacity:1"/>
      <rect rx="8.8437891" style="fill:#451900;fill-opacity:1;stroke:#ffffff;stroke-width:2.5;stroke-miterlimit:4;stroke-dasharray:none;stroke-opacity:1" id="rect2727" width="42.519684" height="77.952759" x="35.433071" y="155.90549" ry="8.8437891"/>
      <rect ry="8.8437891" y="67.322807" x="35.433071" height="77.952759" width="42.519684" id="rect2729" style="fill:#451900;fill-opacity:1;stroke:#ffffff;stroke-width:2.5;stroke-miterlimit:4;stroke-dasharray:none;stroke-opacity:1" rx="8.8437891"/>
    </g>
    <g id="g2731" transform="matrix(-1,0,0,1,-337.9485,1399.606)">
      <rect style="fill:#000000;fill-opacity:1;stroke:none;stroke-width:2.81793427;stroke-miterlimit:4;stroke-dasharray:none;stroke-opacity:1" id="rect2733" width="68.657143" height="24.803154" x="27.01215" y="138.18895" ry="10.597214" rx="10.597214"/>
      <rect ry="8.8437891" y="155.90549" x="35.433071" height="77.952759" width="42.519684" id="rect2735" style="fill:#451900;fill-opacity:1;stroke:#ffffff;stroke-width:2.5;stroke-miterlimit:4;stroke-dasharray:none;stroke-opacity:1" rx="8.8437891"/>
      <rect rx="8.8437891" style="fill:#451900;fill-opacity:1;stroke:#ffffff;stroke-width:2.5;stroke-miterlimit:4;stroke-dasharray:none;stroke-opacity:1" id="rect2737" width="42.519684" height="77.952759" x="35.433071" y="67.322807" ry="8.8437891"/>
    </g>
    <rect ry="8.8437891" y="1397.9879" x="-786.6142" height="52.417667" width="421.65356" id="rect2739" style="fill:#ff7624;fill-opacity:1;stroke:none;stroke-width:2.5;stroke-miterlimit:4;stroke-dasharray:none;stroke-opacity:1" rx="8.8437891"/>
    <rect ry="8.8437891" y="1420.8661" x="-612.99213" height="153.73256" width="74.409447" id="rect2741" style="fill:#ff7624;fill-opacity:1;stroke:none;stroke-width:2.5;stroke-miterlimit:4;stroke-dasharray:none;stroke-opacity:1" rx="8.8437891"/>
    <g id="g2861">
      <path transform="matrix(-1.267056,1.267056,1.663391,1.663391,-633.7527,1039.466)" d="M 217.19867,157.67714 A 13.458516,10.173701 0 1 1 203.74016,147.50344 L 203.74016,157.67714 z" sodipodi:ry="10.173701" sodipodi:rx="13.458516" sodipodi:cy="157.67714" sodipodi:cx="203.74016" id="path2745" style="fill:#ff7624;fill-opacity:1;stroke:none;stroke-width:2.5;stroke-miterlimit:4;stroke-dasharray:none;stroke-opacity:1" sodipodi:type="arc" sodipodi:start="0" sodipodi:end="4.712389"/>
      <path sodipodi:type="arc" style="fill:#e30000;fill-opacity:1;stroke:#ffffff;stroke-width:2.5;stroke-miterlimit:4;stroke-dasharray:none;stroke-opacity:1" id="path2747" sodipodi:cx="203.74016" sodipodi:cy="157.67714" sodipodi:rx="13.458516" sodipodi:ry="10.173701" d="M 217.19867 157.67714 A 13.458516 10.173701 0 1 1  190.28164,157.67714 A 13.458516 10.173701 0 1 1  217.19867 157.67714 z" transform="matrix(-0.715853,0.715853,0.931555,0.931555,-630.0706,1266.972)"/>
      <g id="g2761" transform="translate(-1029.593,1228.308)">
        <path sodipodi:end="4.712389" sodipodi:start="0" sodipodi:type="arc" style="fill:#000000;fill-opacity:1;stroke:none;stroke-width:2.5;stroke-miterlimit:4;stroke-dasharray:none;stroke-opacity:1" id="path2763" sodipodi:cx="203.74016" sodipodi:cy="157.67714" sodipodi:rx="13.458516" sodipodi:ry="10.173701" d="M 217.19867,157.67714 A 13.458516,10.173701 0 1 1 203.74016,147.50344 L 203.74016,157.67714 z" transform="matrix(1.043116,1.043116,-1.369403,1.369403,322.2711,-91.64373)"/>
        <path transform="matrix(0.715853,0.715853,-0.931555,0.931555,319.9345,43.88117)" d="M 217.19867 157.67714 A 13.458516 10.173701 0 1 1  190.28164,157.67714 A 13.458516 10.173701 0 1 1  217.19867 157.67714 z" sodipodi:ry="10.173701" sodipodi:rx="13.458516" sodipodi:cy="157.67714" sodipodi:cx="203.74016" id="path2765" style="fill:#e30000;fill-opacity:1;stroke:#ffffff;stroke-width:2.5;stroke-miterlimit:4;stroke-dasharray:none;stroke-opacity:1" sodipodi:type="arc"/>
      </g>
      <path sodipodi:nodetypes="cc" id="path2767" d="M -710.50379,1565.1123 L -630.70866,1559.5323" style="fill:none;fill-opacity:0.75;fill-rule:evenodd;stroke:#e30000;stroke-width:10.62992096;stroke-linecap:butt;stroke-linejoin:miter;stroke-miterlimit:4;stroke-dasharray:none;stroke-opacity:1"/>
      <path sodipodi:nodetypes="cc" style="fill:none;fill-opacity:0.75;fill-rule:evenodd;stroke:#000000;stroke-width:10.62992382;stroke-linecap:butt;stroke-linejoin:miter;stroke-miterlimit:4;stroke-dasharray:none;stroke-opacity:1" d="M -726.37795,1544.8819 L -726.37795,1502.3622" id="path2785"/>
      <path sodipodi:end="4.712389" sodipodi:start="0" sodipodi:type="arc" style="fill:#ff7624;fill-opacity:1;stroke:none;stroke-width:2.5;stroke-miterlimit:4;stroke-dasharray:none;stroke-opacity:1" id="path2835" sodipodi:cx="203.74016" sodipodi:cy="157.67714" sodipodi:rx="13.458516" sodipodi:ry="10.173701" d="M 217.19867,157.67714 A 13.458516,10.173701 0 1 1 203.74016,147.50344 L 203.74016,157.67714 z" transform="matrix(-1.267056,1.267056,1.663391,1.663391,-633.7527,978.7526)"/>
      <path transform="matrix(-0.715853,0.715853,0.931555,0.931555,-630.0706,1206.259)" d="M 217.19867 157.67714 A 13.458516 10.173701 0 1 1  190.28164,157.67714 A 13.458516 10.173701 0 1 1  217.19867 157.67714 z" sodipodi:ry="10.173701" sodipodi:rx="13.458516" sodipodi:cy="157.67714" sodipodi:cx="203.74016" id="path2837" style="fill:#00315a;fill-opacity:1;stroke:#ffffff;stroke-width:2.5;stroke-miterlimit:4;stroke-dasharray:none;stroke-opacity:1" sodipodi:type="arc"/>
      <path sodipodi:end="4.712389" sodipodi:start="0" sodipodi:type="arc" style="fill:#000000;fill-opacity:1;stroke:none;stroke-width:2.5;stroke-miterlimit:4;stroke-dasharray:none;stroke-opacity:1" id="path2841" sodipodi:cx="203.74016" sodipodi:cy="157.67714" sodipodi:rx="13.458516" sodipodi:ry="10.173701" d="M 217.19867,157.67714 A 13.458516,10.173701 0 1 1 203.74016,147.50344 L 203.74016,157.67714 z" transform="matrix(1.043116,1.043116,-1.369403,1.369403,-707.3219,1075.951)"/>
      <path transform="matrix(0.715853,0.715853,-0.931555,0.931555,-709.6585,1211.476)" d="M 217.19867 157.67714 A 13.458516 10.173701 0 1 1  190.28164,157.67714 A 13.458516 10.173701 0 1 1  217.19867 157.67714 z" sodipodi:ry="10.173701" sodipodi:rx="13.458516" sodipodi:cy="157.67714" sodipodi:cx="203.74016" id="path2843" style="fill:#00315a;fill-opacity:1;stroke:#ffffff;stroke-width:2.5;stroke-miterlimit:4;stroke-dasharray:none;stroke-opacity:1" sodipodi:type="arc"/>
      <path style="fill:none;fill-opacity:0.75;fill-rule:evenodd;stroke:#00315a;stroke-width:10.62992096;stroke-linecap:butt;stroke-linejoin:miter;stroke-miterlimit:4;stroke-dasharray:none;stroke-opacity:1" d="M -710.50379,1504.3989 L -630.70866,1498.8189" id="path2845" sodipodi:nodetypes="cc"/>
    </g>
    <g transform="matrix(-1,0,0,1,-1151.575,1.029274)" id="g2875">
      <path sodipodi:end="4.712389" sodipodi:start="0" sodipodi:type="arc" style="fill:#ff7624;fill-opacity:1;stroke:none;stroke-width:2.5;stroke-miterlimit:4;stroke-dasharray:none;stroke-opacity:1" id="path2877" sodipodi:cx="203.74016" sodipodi:cy="157.67714" sodipodi:rx="13.458516" sodipodi:ry="10.173701" d="M 217.19867,157.67714 A 13.458516,10.173701 0 1 1 203.74016,147.50344 L 203.74016,157.67714 z" transform="matrix(-1.267056,1.267056,1.663391,1.663391,-633.7527,1039.466)"/>
      <path transform="matrix(-0.715853,0.715853,0.931555,0.931555,-630.0706,1266.972)" d="M 217.19867 157.67714 A 13.458516 10.173701 0 1 1  190.28164,157.67714 A 13.458516 10.173701 0 1 1  217.19867 157.67714 z" sodipodi:ry="10.173701" sodipodi:rx="13.458516" sodipodi:cy="157.67714" sodipodi:cx="203.74016" id="path2879" style="fill:#e30000;fill-opacity:1;stroke:#ffffff;stroke-width:2.5;stroke-miterlimit:4;stroke-dasharray:none;stroke-opacity:1" sodipodi:type="arc"/>
      <g transform="translate(-1029.593,1228.308)" id="g2881">
        <path transform="matrix(1.043116,1.043116,-1.369403,1.369403,322.2711,-91.64373)" d="M 217.19867,157.67714 A 13.458516,10.173701 0 1 1 203.74016,147.50344 L 203.74016,157.67714 z" sodipodi:ry="10.173701" sodipodi:rx="13.458516" sodipodi:cy="157.67714" sodipodi:cx="203.74016" id="path2883" style="fill:#000000;fill-opacity:1;stroke:none;stroke-width:2.5;stroke-miterlimit:4;stroke-dasharray:none;stroke-opacity:1" sodipodi:type="arc" sodipodi:start="0" sodipodi:end="4.712389"/>
        <path sodipodi:type="arc" style="fill:#e30000;fill-opacity:1;stroke:#ffffff;stroke-width:2.5;stroke-miterlimit:4;stroke-dasharray:none;stroke-opacity:1" id="path2885" sodipodi:cx="203.74016" sodipodi:cy="157.67714" sodipodi:rx="13.458516" sodipodi:ry="10.173701" d="M 217.19867 157.67714 A 13.458516 10.173701 0 1 1  190.28164,157.67714 A 13.458516 10.173701 0 1 1  217.19867 157.67714 z" transform="matrix(0.715853,0.715853,-0.931555,0.931555,319.9345,43.88117)"/>
      </g>
      <path style="fill:none;fill-opacity:0.75;fill-rule:evenodd;stroke:#e30000;stroke-width:10.62992096;stroke-linecap:butt;stroke-linejoin:miter;stroke-miterlimit:4;stroke-dasharray:none;stroke-opacity:1" d="M -710.50379,1565.1123 L -630.70866,1559.5323" id="path2887" sodipodi:nodetypes="cc"/>
      <path id="path2889" d="M -726.37795,1544.8819 L -726.37795,1502.3622" style="fill:none;fill-opacity:0.75;fill-rule:evenodd;stroke:#000000;stroke-width:10.62992382;stroke-linecap:butt;stroke-linejoin:miter;stroke-miterlimit:4;stroke-dasharray:none;stroke-opacity:1" sodipodi:nodetypes="cc"/>
      <path transform="matrix(-1.267056,1.267056,1.663391,1.663391,-633.7527,978.7526)" d="M 217.19867,157.67714 A 13.458516,10.173701 0 1 1 203.74016,147.50344 L 203.74016,157.67714 z" sodipodi:ry="10.173701" sodipodi:rx="13.458516" sodipodi:cy="157.67714" sodipodi:cx="203.74016" id="path2891" style="fill:#ff7624;fill-opacity:1;stroke:none;stroke-width:2.5;stroke-miterlimit:4;stroke-dasharray:none;stroke-opacity:1" sodipodi:type="arc" sodipodi:start="0" sodipodi:end="4.712389"/>
      <path sodipodi:type="arc" style="fill:#00315a;fill-opacity:1;stroke:#ffffff;stroke-width:2.5;stroke-miterlimit:4;stroke-dasharray:none;stroke-opacity:1" id="path2893" sodipodi:cx="203.74016" sodipodi:cy="157.67714" sodipodi:rx="13.458516" sodipodi:ry="10.173701" d="M 217.19867 157.67714 A 13.458516 10.173701 0 1 1  190.28164,157.67714 A 13.458516 10.173701 0 1 1  217.19867 157.67714 z" transform="matrix(-0.715853,0.715853,0.931555,0.931555,-630.0706,1206.259)"/>
      <path transform="matrix(1.043116,1.043116,-1.369403,1.369403,-707.3219,1075.951)" d="M 217.19867,157.67714 A 13.458516,10.173701 0 1 1 203.74016,147.50344 L 203.74016,157.67714 z" sodipodi:ry="10.173701" sodipodi:rx="13.458516" sodipodi:cy="157.67714" sodipodi:cx="203.74016" id="path2895" style="fill:#000000;fill-opacity:1;stroke:none;stroke-width:2.5;stroke-miterlimit:4;stroke-dasharray:none;stroke-opacity:1" sodipodi:type="arc" sodipodi:start="0" sodipodi:end="4.712389"/>
      <path sodipodi:type="arc" style="fill:#00315a;fill-opacity:1;stroke:#ffffff;stroke-width:2.5;stroke-miterlimit:4;stroke-dasharray:none;stroke-opacity:1" id="path2897" sodipodi:cx="203.74016" sodipodi:cy="157.67714" sodipodi:rx="13.458516" sodipodi:ry="10.173701" d="M 217.19867 157.67714 A 13.458516 10.173701 0 1 1  190.28164,157.67714 A 13.458516 10.173701 0 1 1  217.19867 157.67714 z" transform="matrix(0.715853,0.715853,-0.931555,0.931555,-709.6585,1211.476)"/>
      <path sodipodi:nodetypes="cc" id="path2899" d="M -710.50379,1504.3989 L -630.70866,1498.8189" style="fill:none;fill-opacity:0.75;fill-rule:evenodd;stroke:#00315a;stroke-width:10.62992096;stroke-linecap:butt;stroke-linejoin:miter;stroke-miterlimit:4;stroke-dasharray:none;stroke-opacity:1"/>
    </g>
  </g>
  <g id="g2981" transform="translate(800,-30)">
    <rect ry="8.8437891" y="333.07083" x="-694.48816" height="191.33859" width="237.40155" id="rect2382" style="fill:#ff7624;fill-opacity:1;stroke:none;stroke-width:2.5;stroke-miterlimit:4;stroke-dasharray:none;stroke-opacity:1" rx="8.8437891"/>
    <rect rx="8.8437891" style="fill:#ff7624;fill-opacity:1;stroke:none;stroke-width:2.5;stroke-miterlimit:4;stroke-dasharray:none;stroke-opacity:1" id="rect2384" width="34.748505" height="416.89368" x="314.0665" y="368.50394" ry="8.8437891" transform="matrix(0,1,-1,0,0,0)"/>
    <g id="g2386" transform="translate(-813.6263,380.1628)">
      <rect style="fill:#000000;fill-opacity:1;stroke:none;stroke-width:2.81793427;stroke-miterlimit:4;stroke-dasharray:none;stroke-opacity:1" id="rect2388" width="68.657143" height="24.803154" x="27.01215" y="138.18895" ry="10.597214" rx="10.597214"/>
      <rect ry="8.8437891" y="155.90549" x="35.433071" height="77.952759" width="42.519684" id="rect2390" style="fill:#451900;fill-opacity:1;stroke:#ffffff;stroke-width:2.5;stroke-miterlimit:4;stroke-dasharray:none;stroke-opacity:1" rx="8.8437891"/>
      <rect rx="8.8437891" style="fill:#451900;fill-opacity:1;stroke:#ffffff;stroke-width:2.5;stroke-miterlimit:4;stroke-dasharray:none;stroke-opacity:1" id="rect2392" width="42.519684" height="77.952759" x="35.433071" y="67.322807" ry="8.8437891"/>
    </g>
    <g transform="matrix(-1,0,0,1,-337.9485,380.1628)" id="g2432">
      <rect rx="10.597214" ry="10.597214" y="138.18895" x="27.01215" height="24.803154" width="68.657143" id="rect2434" style="fill:#000000;fill-opacity:1;stroke:none;stroke-width:2.81793427;stroke-miterlimit:4;stroke-dasharray:none;stroke-opacity:1"/>
      <rect rx="8.8437891" style="fill:#451900;fill-opacity:1;stroke:#ffffff;stroke-width:2.5;stroke-miterlimit:4;stroke-dasharray:none;stroke-opacity:1" id="rect2436" width="42.519684" height="77.952759" x="35.433071" y="155.90549" ry="8.8437891"/>
      <rect ry="8.8437891" y="67.322807" x="35.433071" height="77.952759" width="42.519684" id="rect2438" style="fill:#451900;fill-opacity:1;stroke:#ffffff;stroke-width:2.5;stroke-miterlimit:4;stroke-dasharray:none;stroke-opacity:1" rx="8.8437891"/>
    </g>
    <rect rx="8.8437891" style="fill:#ff7624;fill-opacity:1;stroke:none;stroke-width:2.5;stroke-miterlimit:4;stroke-dasharray:none;stroke-opacity:1" id="rect2470" width="42.519684" height="115.60772" x="-786.6142" y="315.35431" ry="8.8437891"/>
    <rect rx="8.8437891" style="fill:#ff7624;fill-opacity:1;stroke:none;stroke-width:2.5;stroke-miterlimit:4;stroke-dasharray:none;stroke-opacity:1" id="rect2472" width="74.409447" height="219.78618" x="-612.99213" y="335.36902" ry="8.8437891"/>
    <g id="g2488">
      <path sodipodi:end="4.712389" sodipodi:start="0" sodipodi:type="arc" style="fill:#ff7624;fill-opacity:1;stroke:none;stroke-width:2.5;stroke-miterlimit:4;stroke-dasharray:none;stroke-opacity:1" id="path2414" sodipodi:cx="203.74016" sodipodi:cy="157.67714" sodipodi:rx="13.458516" sodipodi:ry="10.173701" d="M 217.19867,157.67714 A 13.458516,10.173701 0 1 1 203.74016,147.50344 L 203.74016,157.67714 z" transform="matrix(-1.267056,1.267056,1.663391,1.663391,-633.7527,20.02316)"/>
      <path transform="matrix(-0.715853,0.715853,0.931555,0.931555,-630.0706,247.5287)" d="M 217.19867 157.67714 A 13.458516 10.173701 0 1 1  190.28164,157.67714 A 13.458516 10.173701 0 1 1  217.19867 157.67714 z" sodipodi:ry="10.173701" sodipodi:rx="13.458516" sodipodi:cy="157.67714" sodipodi:cx="203.74016" id="path2416" style="fill:#e30000;fill-opacity:1;stroke:#ffffff;stroke-width:2.5;stroke-miterlimit:4;stroke-dasharray:none;stroke-opacity:1" sodipodi:type="arc"/>
      <path transform="matrix(1.484319,-1.484319,1.971941,1.971941,-1332.637,408.2754)" d="M 217.19867,157.67714 A 13.458516,10.173701 0 0 1 203.74016,167.85084 L 203.74016,157.67714 z" sodipodi:ry="10.173701" sodipodi:rx="13.458516" sodipodi:cy="157.67714" sodipodi:cx="203.74016" id="path2452" style="fill:#ff7622;fill-opacity:1;stroke:none;stroke-width:2.5;stroke-miterlimit:4;stroke-dasharray:none;stroke-opacity:1" sodipodi:type="arc" sodipodi:start="0" sodipodi:end="1.5707963"/>
      <path sodipodi:end="4.712389" sodipodi:start="3.1415927" sodipodi:type="arc" style="fill:#ff7622;fill-opacity:1;stroke:none;stroke-width:2.5;stroke-miterlimit:4;stroke-dasharray:none;stroke-opacity:1" id="path2454" sodipodi:cx="203.74016" sodipodi:cy="157.67714" sodipodi:rx="13.458516" sodipodi:ry="10.173701" d="M 190.28164,157.67714 A 13.458516,10.173701 0 0 1 203.74016,147.50344 L 203.74016,157.67714 z" transform="matrix(1.489865,-1.489865,1.971933,1.971933,-1333.766,409.4066)"/>
      <path transform="matrix(1.107274,-1.107274,1.507075,1.507075,-1182.519,404.755)" d="M 217.19867 157.67714 A 13.458516 10.173701 0 1 1  190.28164,157.67714 A 13.458516 10.173701 0 1 1  217.19867 157.67714 z" sodipodi:ry="10.173701" sodipodi:rx="13.458516" sodipodi:cy="157.67714" sodipodi:cx="203.74016" id="path2456" style="fill:#00315a;fill-opacity:1;stroke:#ffffff;stroke-width:2.5;stroke-miterlimit:4;stroke-dasharray:none;stroke-opacity:1" sodipodi:type="arc"/>
      <path sodipodi:nodetypes="cc" style="fill:none;fill-opacity:0.75;fill-rule:evenodd;stroke:#00315a;stroke-width:21.25984764;stroke-linecap:butt;stroke-linejoin:miter;stroke-miterlimit:4;stroke-dasharray:none;stroke-opacity:1" d="M -719.29143,461.88901 L -719.29142,371.69111" id="path2458"/>
      <path id="path2460" d="M -719.29143,466.90001 L -719.29142,366.68011" style="fill:none;fill-opacity:0.75;fill-rule:evenodd;stroke:#ffffff;stroke-width:14.17323303;stroke-linecap:butt;stroke-linejoin:miter;stroke-miterlimit:4;stroke-dasharray:none;stroke-opacity:1" sodipodi:nodetypes="cc"/>
      <path sodipodi:nodetypes="cc" style="fill:none;fill-opacity:0.75;fill-rule:evenodd;stroke:#000000;stroke-width:10.62992382;stroke-linecap:butt;stroke-linejoin:miter;stroke-miterlimit:4;stroke-dasharray:none;stroke-opacity:1" d="M -719.29134,527.95273 L -719.29134,361.4173" id="path2462"/>
      <g transform="translate(-1029.593,208.8648)" id="g2482">
        <path transform="matrix(1.043116,1.043116,-1.369403,1.369403,322.2711,-91.64373)" d="M 217.19867,157.67714 A 13.458516,10.173701 0 1 1 203.74016,147.50344 L 203.74016,157.67714 z" sodipodi:ry="10.173701" sodipodi:rx="13.458516" sodipodi:cy="157.67714" sodipodi:cx="203.74016" id="path2484" style="fill:#000000;fill-opacity:1;stroke:none;stroke-width:2.5;stroke-miterlimit:4;stroke-dasharray:none;stroke-opacity:1" sodipodi:type="arc" sodipodi:start="0" sodipodi:end="4.712389"/>
        <path sodipodi:type="arc" style="fill:#e30000;fill-opacity:1;stroke:#ffffff;stroke-width:2.5;stroke-miterlimit:4;stroke-dasharray:none;stroke-opacity:1" id="path2486" sodipodi:cx="203.74016" sodipodi:cy="157.67714" sodipodi:rx="13.458516" sodipodi:ry="10.173701" d="M 217.19867 157.67714 A 13.458516 10.173701 0 1 1  190.28164,157.67714 A 13.458516 10.173701 0 1 1  217.19867 157.67714 z" transform="matrix(0.715853,0.715853,-0.931555,0.931555,319.9345,43.88117)"/>
      </g>
      <path style="fill:none;fill-opacity:0.75;fill-rule:evenodd;stroke:#e30000;stroke-width:10.62992096;stroke-linecap:butt;stroke-linejoin:miter;stroke-miterlimit:4;stroke-dasharray:none;stroke-opacity:1" d="M -710.50379,545.66927 L -630.70866,540.08931" id="path2422" sodipodi:nodetypes="cc"/>
    </g>
    <g transform="matrix(-1,0,0,1,-1151.575,7.274234e-7)" id="g2502">
      <path transform="matrix(-1.267056,1.267056,1.663391,1.663391,-633.7527,20.02316)" d="M 217.19867,157.67714 A 13.458516,10.173701 0 1 1 203.74016,147.50344 L 203.74016,157.67714 z" sodipodi:ry="10.173701" sodipodi:rx="13.458516" sodipodi:cy="157.67714" sodipodi:cx="203.74016" id="path2504" style="fill:#ff7624;fill-opacity:1;stroke:none;stroke-width:2.5;stroke-miterlimit:4;stroke-dasharray:none;stroke-opacity:1" sodipodi:type="arc" sodipodi:start="0" sodipodi:end="4.712389"/>
      <path sodipodi:type="arc" style="fill:#e30000;fill-opacity:1;stroke:#ffffff;stroke-width:2.5;stroke-miterlimit:4;stroke-dasharray:none;stroke-opacity:1" id="path2506" sodipodi:cx="203.74016" sodipodi:cy="157.67714" sodipodi:rx="13.458516" sodipodi:ry="10.173701" d="M 217.19867 157.67714 A 13.458516 10.173701 0 1 1  190.28164,157.67714 A 13.458516 10.173701 0 1 1  217.19867 157.67714 z" transform="matrix(-0.715853,0.715853,0.931555,0.931555,-630.0706,247.5287)"/>
      <path sodipodi:end="1.5707963" sodipodi:start="0" sodipodi:type="arc" style="fill:#ff7622;fill-opacity:1;stroke:none;stroke-width:2.5;stroke-miterlimit:4;stroke-dasharray:none;stroke-opacity:1" id="path2508" sodipodi:cx="203.74016" sodipodi:cy="157.67714" sodipodi:rx="13.458516" sodipodi:ry="10.173701" d="M 217.19867,157.67714 A 13.458516,10.173701 0 0 1 203.74016,167.85084 L 203.74016,157.67714 z" transform="matrix(1.484319,-1.484319,1.971941,1.971941,-1332.637,408.2754)"/>
      <path transform="matrix(1.489865,-1.489865,1.971933,1.971933,-1333.766,409.4066)" d="M 190.28164,157.67714 A 13.458516,10.173701 0 0 1 203.74016,147.50344 L 203.74016,157.67714 z" sodipodi:ry="10.173701" sodipodi:rx="13.458516" sodipodi:cy="157.67714" sodipodi:cx="203.74016" id="path2510" style="fill:#ff7622;fill-opacity:1;stroke:none;stroke-width:2.5;stroke-miterlimit:4;stroke-dasharray:none;stroke-opacity:1" sodipodi:type="arc" sodipodi:start="3.1415927" sodipodi:end="4.712389"/>
      <path sodipodi:type="arc" style="fill:#00315a;fill-opacity:1;stroke:#ffffff;stroke-width:2.5;stroke-miterlimit:4;stroke-dasharray:none;stroke-opacity:1" id="path2512" sodipodi:cx="203.74016" sodipodi:cy="157.67714" sodipodi:rx="13.458516" sodipodi:ry="10.173701" d="M 217.19867 157.67714 A 13.458516 10.173701 0 1 1  190.28164,157.67714 A 13.458516 10.173701 0 1 1  217.19867 157.67714 z" transform="matrix(1.107274,-1.107274,1.507075,1.507075,-1182.519,404.755)"/>
      <path id="path2514" d="M -719.29143,461.88901 L -719.29142,371.69111" style="fill:none;fill-opacity:0.75;fill-rule:evenodd;stroke:#00315a;stroke-width:21.25984764;stroke-linecap:butt;stroke-linejoin:miter;stroke-miterlimit:4;stroke-dasharray:none;stroke-opacity:1" sodipodi:nodetypes="cc"/>
      <path sodipodi:nodetypes="cc" style="fill:none;fill-opacity:0.75;fill-rule:evenodd;stroke:#ffffff;stroke-width:14.17323303;stroke-linecap:butt;stroke-linejoin:miter;stroke-miterlimit:4;stroke-dasharray:none;stroke-opacity:1" d="M -719.29143,466.90001 L -719.29142,366.68011" id="path2516"/>
      <path id="path2518" d="M -719.29134,527.95273 L -719.29134,361.4173" style="fill:none;fill-opacity:0.75;fill-rule:evenodd;stroke:#000000;stroke-width:10.62992382;stroke-linecap:butt;stroke-linejoin:miter;stroke-miterlimit:4;stroke-dasharray:none;stroke-opacity:1" sodipodi:nodetypes="cc"/>
      <g id="g2520" transform="translate(-1029.593,208.8648)">
        <path sodipodi:end="4.712389" sodipodi:start="0" sodipodi:type="arc" style="fill:#000000;fill-opacity:1;stroke:none;stroke-width:2.5;stroke-miterlimit:4;stroke-dasharray:none;stroke-opacity:1" id="path2522" sodipodi:cx="203.74016" sodipodi:cy="157.67714" sodipodi:rx="13.458516" sodipodi:ry="10.173701" d="M 217.19867,157.67714 A 13.458516,10.173701 0 1 1 203.74016,147.50344 L 203.74016,157.67714 z" transform="matrix(1.043116,1.043116,-1.369403,1.369403,322.2711,-91.64373)"/>
        <path transform="matrix(0.715853,0.715853,-0.931555,0.931555,319.9345,43.88117)" d="M 217.19867 157.67714 A 13.458516 10.173701 0 1 1  190.28164,157.67714 A 13.458516 10.173701 0 1 1  217.19867 157.67714 z" sodipodi:ry="10.173701" sodipodi:rx="13.458516" sodipodi:cy="157.67714" sodipodi:cx="203.74016" id="path2524" style="fill:#e30000;fill-opacity:1;stroke:#ffffff;stroke-width:2.5;stroke-miterlimit:4;stroke-dasharray:none;stroke-opacity:1" sodipodi:type="arc"/>
      </g>
      <path sodipodi:nodetypes="cc" id="path2526" d="M -710.50379,545.66927 L -630.70866,540.08931" style="fill:none;fill-opacity:0.75;fill-rule:evenodd;stroke:#e30000;stroke-width:10.62992096;stroke-linecap:butt;stroke-linejoin:miter;stroke-miterlimit:4;stroke-dasharray:none;stroke-opacity:1"/>
    </g>
    <rect ry="8.8437891" y="315.35431" x="-407.48032" height="115.60772" width="42.519684" id="rect2528" style="fill:#ff7624;fill-opacity:1;stroke:none;stroke-width:2.5;stroke-miterlimit:4;stroke-dasharray:none;stroke-opacity:1" rx="8.8437891"/>
  </g>
  </svg>